<?xml version="1.0" encoding="UTF-8" standalone="no"?>
<!DOCTYPE svg PUBLIC "-//W3C//DTD SVG 1.1//EN"
 "http://www.w3.org/Graphics/SVG/1.1/DTD/svg11.dtd">
<!-- Generated by graphviz version 2.43.0 (0)
 -->
<!-- Title: CourseDesign Pages: 1 -->
<svg width="898pt" height="1107pt"
 viewBox="0.00 0.00 897.89 1106.61" xmlns="http://www.w3.org/2000/svg" xmlns:xlink="http://www.w3.org/1999/xlink">
<g id="graph0" class="graph" transform="scale(1 1) rotate(0) translate(4 1102.61)">
<title>CourseDesign</title>
<polygon fill="white" stroke="transparent" points="-4,4 -4,-1102.61 893.89,-1102.61 893.89,4 -4,4"/>
<!-- lab_monitoring -->
<g id="node1" class="node">
<title>lab_monitoring</title>
<ellipse fill="lightblue" stroke="black" cx="170" cy="-999.74" rx="67.76" ry="26.74"/>
<text text-anchor="middle" x="170" y="-1003.54" font-family="Times,serif" font-size="14.00">In&#45;lab</text>
<text text-anchor="middle" x="170" y="-988.54" font-family="Times,serif" font-size="14.00">Monitoring</text>
</g>
<!-- lab_feedback -->
<g id="node2" class="node">
<title>lab_feedback</title>
<ellipse fill="lightblue" stroke="black" cx="315" cy="-999.74" rx="59.29" ry="26.74"/>
<text text-anchor="middle" x="315" y="-1003.54" font-family="Times,serif" font-size="14.00">In&#45;lab</text>
<text text-anchor="middle" x="315" y="-988.54" font-family="Times,serif" font-size="14.00">Feedback</text>
</g>
<!-- lab_monitoring&#45;&gt;lab_feedback -->
<g id="edge6" class="edge">
<title>lab_monitoring&#45;&gt;lab_feedback</title>
<path fill="none" stroke="black" d="M237.97,-999.74C240.42,-999.74 242.88,-999.74 245.33,-999.74"/>
<polygon fill="black" stroke="black" points="245.42,-1003.24 255.42,-999.74 245.42,-996.24 245.42,-1003.24"/>
</g>
<!-- jit_concept -->
<g id="node5" class="node">
<title>jit_concept</title>
<ellipse fill="lightgreen" stroke="black" cx="504" cy="-899.4" rx="74.49" ry="37.45"/>
<text text-anchor="middle" x="504" y="-910.7" font-family="Times,serif" font-size="14.00">Just&#45;in&#45;Time</text>
<text text-anchor="middle" x="504" y="-895.7" font-family="Times,serif" font-size="14.00">Concept</text>
<text text-anchor="middle" x="504" y="-880.7" font-family="Times,serif" font-size="14.00">Introduction</text>
</g>
<!-- lab_monitoring&#45;&gt;jit_concept -->
<g id="edge3" class="edge">
<title>lab_monitoring&#45;&gt;jit_concept</title>
<path fill="none" stroke="black" d="M220,-981.55C228.97,-978.58 238.24,-975.58 247,-972.87 308.07,-954.02 377.9,-934.45 429.34,-920.41"/>
<polygon fill="black" stroke="black" points="430.32,-923.77 439.05,-917.76 428.48,-917.01 430.32,-923.77"/>
</g>
<!-- individual_explain -->
<g id="node20" class="node">
<title>individual_explain</title>
<ellipse fill="lightyellow" stroke="black" cx="176" cy="-799.05" rx="72.25" ry="26.74"/>
<text text-anchor="middle" x="176" y="-802.85" font-family="Times,serif" font-size="14.00">Individual</text>
<text text-anchor="middle" x="176" y="-787.85" font-family="Times,serif" font-size="14.00">Explanation</text>
</g>
<!-- lab_monitoring&#45;&gt;individual_explain -->
<g id="edge42" class="edge">
<title>lab_monitoring&#45;&gt;individual_explain</title>
<path fill="none" stroke="black" d="M171.09,-962.53C172.29,-923.06 174.16,-860.92 175.22,-826.03"/>
<polygon fill="black" stroke="black" points="167.59,-962.67 170.78,-972.77 174.58,-962.88 167.59,-962.67"/>
</g>
<!-- peer_explain -->
<g id="node21" class="node">
<title>peer_explain</title>
<ellipse fill="lightyellow" stroke="black" cx="292" cy="-440.09" rx="72.25" ry="26.74"/>
<text text-anchor="middle" x="292" y="-443.89" font-family="Times,serif" font-size="14.00">Peer</text>
<text text-anchor="middle" x="292" y="-428.89" font-family="Times,serif" font-size="14.00">Explanation</text>
</g>
<!-- lab_monitoring&#45;&gt;peer_explain -->
<g id="edge44" class="edge">
<title>lab_monitoring&#45;&gt;peer_explain</title>
<path fill="none" stroke="black" d="M122.04,-972.1C108.21,-962.5 94.13,-950.6 84,-936.87 45.91,-885.25 38,-864.21 38,-800.05 38,-800.05 38,-800.05 38,-618.57 38,-524.56 156.36,-476.2 231.48,-454.97"/>
<polygon fill="black" stroke="black" points="120.32,-975.16 130.59,-977.77 124.19,-969.33 120.32,-975.16"/>
</g>
<!-- knowledge -->
<g id="node9" class="node">
<title>knowledge</title>
<ellipse fill="lightpink" stroke="black" cx="477" cy="-170.87" rx="61.99" ry="18"/>
<text text-anchor="middle" x="477" y="-167.17" font-family="Times,serif" font-size="14.00">Knowledge</text>
</g>
<!-- lab_feedback&#45;&gt;knowledge -->
<g id="edge45" class="edge">
<title>lab_feedback&#45;&gt;knowledge</title>
<path fill="none" stroke="black" d="M372.69,-993.25C443.75,-985.24 558.59,-967.83 587,-936.87 628.51,-891.64 606,-861.44 606,-800.05 606,-800.05 606,-800.05 606,-708.31 606,-588.7 638,-560.7 638,-441.09 638,-441.09 638,-441.09 638,-349.35 638,-276.46 562.59,-220.21 514.99,-191.96"/>
<polygon fill="black" stroke="black" points="516.56,-188.83 506.16,-186.86 513.06,-194.89 516.56,-188.83"/>
</g>
<!-- iterative_cycles -->
<g id="node10" class="node">
<title>iterative_cycles</title>
<ellipse fill="lightyellow" stroke="black" cx="335" cy="-529.83" rx="55.31" ry="26.74"/>
<text text-anchor="middle" x="335" y="-533.63" font-family="Times,serif" font-size="14.00">Iterative</text>
<text text-anchor="middle" x="335" y="-518.63" font-family="Times,serif" font-size="14.00">Cycles</text>
</g>
<!-- lab_feedback&#45;&gt;iterative_cycles -->
<g id="edge29" class="edge">
<title>lab_feedback&#45;&gt;iterative_cycles</title>
<path fill="none" stroke="black" d="M317.64,-972.69C322.28,-925.57 331.7,-822.98 335,-736.18 337.26,-676.86 336.58,-607.84 335.83,-566.82"/>
<polygon fill="black" stroke="black" points="339.33,-566.71 335.63,-556.78 332.33,-566.84 339.33,-566.71"/>
</g>
<!-- design_choices -->
<g id="node22" class="node">
<title>design_choices</title>
<ellipse fill="lightyellow" stroke="black" cx="275" cy="-709.31" rx="50.82" ry="26.74"/>
<text text-anchor="middle" x="275" y="-713.11" font-family="Times,serif" font-size="14.00">Design</text>
<text text-anchor="middle" x="275" y="-698.11" font-family="Times,serif" font-size="14.00">Choices</text>
</g>
<!-- lab_feedback&#45;&gt;design_choices -->
<g id="edge43" class="edge">
<title>lab_feedback&#45;&gt;design_choices</title>
<path fill="none" stroke="black" d="M311.42,-972.89C304.25,-921.24 288.16,-805.17 279.98,-746.19"/>
<polygon fill="black" stroke="black" points="283.43,-745.63 278.59,-736.21 276.5,-746.59 283.43,-745.63"/>
</g>
<!-- doubt_resolution -->
<g id="node3" class="node">
<title>doubt_resolution</title>
<ellipse fill="lightgreen" stroke="black" cx="699" cy="-709.31" rx="65.11" ry="26.74"/>
<text text-anchor="middle" x="699" y="-713.11" font-family="Times,serif" font-size="14.00">Doubt</text>
<text text-anchor="middle" x="699" y="-698.11" font-family="Times,serif" font-size="14.00">Resolution</text>
</g>
<!-- doubt_resolution&#45;&gt;knowledge -->
<g id="edge12" class="edge">
<title>doubt_resolution&#45;&gt;knowledge</title>
<path fill="none" stroke="black" d="M696.84,-682.17C694.18,-647.57 690,-584.67 690,-530.83 690,-530.83 690,-530.83 690,-349.35 690,-295.26 689.82,-272.41 652,-233.74 623.17,-204.26 579.43,-188.79 542.9,-180.69"/>
<polygon fill="black" stroke="black" points="543.3,-177.2 532.8,-178.6 541.88,-184.06 543.3,-177.2"/>
</g>
<!-- Doubt -->
<g id="node18" class="node">
<title>Doubt</title>
<ellipse fill="lightpink" stroke="black" cx="401" cy="-350.35" rx="38.99" ry="18"/>
<text text-anchor="middle" x="401" y="-346.65" font-family="Times,serif" font-size="14.00">Doubt</text>
</g>
<!-- doubt_resolution&#45;&gt;Doubt -->
<g id="edge34" class="edge">
<title>doubt_resolution&#45;&gt;Doubt</title>
<path fill="none" stroke="black" d="M683.42,-673.47C651.88,-604.1 579.89,-452.07 538,-413.22 508.34,-385.71 464.37,-368.83 434.3,-359.8"/>
<polygon fill="black" stroke="black" points="680.28,-675.02 687.6,-682.69 686.66,-672.13 680.28,-675.02"/>
</g>
<!-- lectures -->
<g id="node4" class="node">
<title>lectures</title>
<ellipse fill="lightgreen" stroke="black" cx="646" cy="-999.74" rx="51.19" ry="18"/>
<text text-anchor="middle" x="646" y="-996.04" font-family="Times,serif" font-size="14.00">Lectures</text>
</g>
<!-- lectures&#45;&gt;doubt_resolution -->
<g id="edge4" class="edge">
<title>lectures&#45;&gt;doubt_resolution</title>
<path fill="none" stroke="black" d="M647.54,-981.37C650,-955.3 655.31,-904.56 663,-861.92 670.22,-821.86 681.39,-776.5 689.38,-745.93"/>
<polygon fill="black" stroke="black" points="692.79,-746.71 691.95,-736.15 686.02,-744.93 692.79,-746.71"/>
</g>
<!-- lectures&#45;&gt;jit_concept -->
<g id="edge7" class="edge">
<title>lectures&#45;&gt;jit_concept</title>
<path fill="none" stroke="black" d="M623.81,-983.38C605.54,-970.72 578.91,-952.28 555.4,-935.99"/>
<polygon fill="black" stroke="black" points="557.11,-932.92 546.89,-930.1 553.12,-938.68 557.11,-932.92"/>
</g>
<!-- worked_examples -->
<g id="node6" class="node">
<title>worked_examples</title>
<ellipse fill="lightgreen" stroke="black" cx="781" cy="-899.4" rx="108.79" ry="26.74"/>
<text text-anchor="middle" x="781" y="-903.2" font-family="Times,serif" font-size="14.00">Worked Examples</text>
<text text-anchor="middle" x="781" y="-888.2" font-family="Times,serif" font-size="14.00">and Demonstration</text>
</g>
<!-- lectures&#45;&gt;worked_examples -->
<g id="edge8" class="edge">
<title>lectures&#45;&gt;worked_examples</title>
<path fill="none" stroke="black" d="M667.39,-983.16C686.55,-969.21 715.19,-948.34 738.92,-931.05"/>
<polygon fill="black" stroke="black" points="741.06,-933.82 747.09,-925.1 736.94,-928.16 741.06,-933.82"/>
</g>
<!-- sequential_pipeline -->
<g id="node8" class="node">
<title>sequential_pipeline</title>
<ellipse fill="lightyellow" stroke="black" cx="437" cy="-799.05" rx="58.88" ry="26.74"/>
<text text-anchor="middle" x="437" y="-802.85" font-family="Times,serif" font-size="14.00">Project</text>
<text text-anchor="middle" x="437" y="-787.85" font-family="Times,serif" font-size="14.00">Time&#45;line</text>
</g>
<!-- jit_concept&#45;&gt;sequential_pipeline -->
<g id="edge10" class="edge">
<title>jit_concept&#45;&gt;sequential_pipeline</title>
<path fill="none" stroke="black" d="M480.38,-863.72C473.62,-853.8 466.27,-843.01 459.57,-833.18"/>
<polygon fill="black" stroke="black" points="462.41,-831.13 453.89,-824.84 456.63,-835.08 462.41,-831.13"/>
</g>
<!-- jit_concept&#45;&gt;knowledge -->
<g id="edge11" class="edge">
<title>jit_concept&#45;&gt;knowledge</title>
<path fill="none" stroke="black" d="M521.88,-862.99C538.92,-825.91 562,-765.5 562,-710.31 562,-710.31 562,-710.31 562,-349.35 562,-290.08 522.96,-229.63 497.8,-196.82"/>
<polygon fill="black" stroke="black" points="500.35,-194.41 491.42,-188.71 494.85,-198.73 500.35,-194.41"/>
</g>
<!-- worked_examples&#45;&gt;doubt_resolution -->
<g id="edge9" class="edge">
<title>worked_examples&#45;&gt;doubt_resolution</title>
<path fill="none" stroke="black" d="M769.77,-872.64C755.4,-839.67 730.43,-782.4 714.32,-745.45"/>
<polygon fill="black" stroke="black" points="717.43,-743.83 710.23,-736.06 711.01,-746.62 717.43,-743.83"/>
</g>
<!-- worked_examples&#45;&gt;knowledge -->
<g id="edge14" class="edge">
<title>worked_examples&#45;&gt;knowledge</title>
<path fill="none" stroke="black" d="M783.5,-872.26C786.74,-835.96 792,-768.21 792,-710.31 792,-710.31 792,-710.31 792,-349.35 792,-236.36 636.26,-194.52 543.8,-179.63"/>
<polygon fill="black" stroke="black" points="544.1,-176.14 533.68,-178.07 543.03,-183.06 544.1,-176.14"/>
</g>
<!-- community_exemplars -->
<g id="node7" class="node">
<title>community_exemplars</title>
<ellipse fill="cyan" stroke="black" cx="506" cy="-1080.61" rx="50.89" ry="18"/>
<text text-anchor="middle" x="506" y="-1076.91" font-family="Times,serif" font-size="14.00">Past PLs</text>
</g>
<!-- community_exemplars&#45;&gt;worked_examples -->
<g id="edge24" class="edge">
<title>community_exemplars&#45;&gt;worked_examples</title>
<path fill="none" stroke="black" d="M550.75,-1071.83C601.91,-1062.25 681.71,-1044.96 706,-1026.61 722.2,-1014.38 747.27,-968.51 763.91,-935.6"/>
<polygon fill="black" stroke="black" points="767.23,-936.78 768.57,-926.27 760.97,-933.65 767.23,-936.78"/>
</g>
<!-- community_exemplars&#45;&gt;sequential_pipeline -->
<g id="edge23" class="edge">
<title>community_exemplars&#45;&gt;sequential_pipeline</title>
<path fill="none" stroke="black" d="M491.95,-1063C471.61,-1037.72 434.85,-987.21 421,-936.87 411.73,-903.19 418.25,-863.41 425.55,-835.44"/>
<polygon fill="black" stroke="black" points="428.95,-836.28 428.25,-825.71 422.21,-834.41 428.95,-836.28"/>
</g>
<!-- sequential_pipeline&#45;&gt;lab_monitoring -->
<g id="edge28" class="edge">
<title>sequential_pipeline&#45;&gt;lab_monitoring</title>
<path fill="none" stroke="black" d="M407.2,-822.22C358.78,-858.26 263.02,-929.52 209.16,-969.6"/>
<polygon fill="black" stroke="black" points="206.82,-966.98 200.89,-975.76 211,-972.6 206.82,-966.98"/>
</g>
<!-- sequential_pipeline&#45;&gt;iterative_cycles -->
<g id="edge15" class="edge">
<title>sequential_pipeline&#45;&gt;iterative_cycles</title>
<path fill="none" stroke="black" d="M429.83,-772.25C418.54,-732.83 395.1,-655.56 368,-592.7 364.03,-583.49 359.2,-573.8 354.47,-564.89"/>
<polygon fill="black" stroke="black" points="357.46,-563.07 349.62,-555.95 351.31,-566.41 357.46,-563.07"/>
</g>
<!-- sequential_pipeline&#45;&gt;design_choices -->
<g id="edge40" class="edge">
<title>sequential_pipeline&#45;&gt;design_choices</title>
<path fill="none" stroke="black" d="M399.83,-777.92C375.71,-764.85 344.15,-747.77 318.81,-734.04"/>
<polygon fill="black" stroke="black" points="320.24,-730.83 309.78,-729.15 316.9,-736.99 320.24,-730.83"/>
</g>
<!-- knowledge&#45;&gt;iterative_cycles -->
<g id="edge16" class="edge">
<title>knowledge&#45;&gt;iterative_cycles</title>
<path fill="none" stroke="black" d="M482.77,-189.09C491.45,-237.71 495.99,-378.26 433,-466.96 421.22,-483.55 403.51,-497.17 386.3,-507.36"/>
<polygon fill="black" stroke="black" points="384.38,-504.42 377.38,-512.38 387.81,-510.52 384.38,-504.42"/>
</g>
<!-- peer_learning -->
<g id="node13" class="node">
<title>peer_learning</title>
<ellipse fill="lightyellow" stroke="black" cx="321" cy="-260.61" rx="56.64" ry="26.74"/>
<text text-anchor="middle" x="321" y="-264.41" font-family="Times,serif" font-size="14.00">Group</text>
<text text-anchor="middle" x="321" y="-249.41" font-family="Times,serif" font-size="14.00">Learning</text>
</g>
<!-- knowledge&#45;&gt;peer_learning -->
<g id="edge1" class="edge">
<title>knowledge&#45;&gt;peer_learning</title>
<path fill="none" stroke="black" d="M454.02,-187.8C431.58,-201.32 397.01,-220.9 368.68,-236.2"/>
<polygon fill="black" stroke="black" points="366.88,-233.19 359.72,-241 370.19,-239.36 366.88,-233.19"/>
</g>
<!-- examinations -->
<g id="node16" class="node">
<title>examinations</title>
<ellipse fill="brown" stroke="black" cx="435" cy="-90" rx="74.19" ry="18"/>
<text text-anchor="middle" x="435" y="-86.3" font-family="Times,serif" font-size="14.00" fill="white">Examinations</text>
</g>
<!-- knowledge&#45;&gt;examinations -->
<g id="edge27" class="edge">
<title>knowledge&#45;&gt;examinations</title>
<path fill="none" stroke="black" d="M467.89,-152.76C462.33,-142.32 455.11,-128.77 448.86,-117.02"/>
<polygon fill="black" stroke="black" points="451.89,-115.26 444.1,-108.08 445.71,-118.55 451.89,-115.26"/>
</g>
<!-- iterative_cycles&#45;&gt;lab_monitoring -->
<g id="edge5" class="edge">
<title>iterative_cycles&#45;&gt;lab_monitoring</title>
<path fill="none" stroke="black" d="M282.23,-537.66C219.44,-546.9 119.93,-565.43 95,-592.7 59.86,-631.13 76,-656.24 76,-708.31 76,-800.05 76,-800.05 76,-800.05 76,-863.38 115.5,-928.1 143.29,-965.79"/>
<polygon fill="black" stroke="black" points="140.56,-967.99 149.37,-973.87 146.15,-963.77 140.56,-967.99"/>
</g>
<!-- iterative_cycles&#45;&gt;knowledge -->
<g id="edge17" class="edge">
<title>iterative_cycles&#45;&gt;knowledge</title>
<path fill="none" stroke="black" d="M368.41,-508.16C384.57,-497.88 402.91,-483.99 415,-466.96 474.05,-383.81 473.76,-255.08 474.4,-199.25"/>
<polygon fill="black" stroke="black" points="477.91,-199.14 474.56,-189.09 470.91,-199.03 477.91,-199.14"/>
</g>
<!-- social_accountability -->
<g id="node12" class="node">
<title>social_accountability</title>
<ellipse fill="lightyellow" stroke="black" cx="248" cy="-170.87" rx="73.58" ry="26.74"/>
<text text-anchor="middle" x="248" y="-174.67" font-family="Times,serif" font-size="14.00">Respect and</text>
<text text-anchor="middle" x="248" y="-159.67" font-family="Times,serif" font-size="14.00">Belonging</text>
</g>
<!-- iterative_cycles&#45;&gt;social_accountability -->
<g id="edge18" class="edge">
<title>iterative_cycles&#45;&gt;social_accountability</title>
<path fill="none" stroke="black" d="M283.79,-519.51C254.14,-510.97 219.47,-495.2 202,-466.96 151.05,-384.6 194.62,-264.53 225.1,-206.21"/>
<polygon fill="black" stroke="black" points="228.36,-207.52 230.04,-197.06 222.21,-204.19 228.36,-207.52"/>
</g>
<!-- Product -->
<g id="node14" class="node">
<title>Product</title>
<ellipse fill="orange" stroke="black" cx="88" cy="-350.35" rx="57.97" ry="26.74"/>
<text text-anchor="middle" x="88" y="-354.15" font-family="Times,serif" font-size="14.00">Final</text>
<text text-anchor="middle" x="88" y="-339.15" font-family="Times,serif" font-size="14.00">Compiler</text>
</g>
<!-- iterative_cycles&#45;&gt;Product -->
<g id="edge30" class="edge">
<title>iterative_cycles&#45;&gt;Product</title>
<path fill="none" stroke="black" d="M283.41,-520.09C245.97,-511.63 195.8,-495.72 160,-466.96 133.52,-445.69 114.09,-411.89 102.13,-386.32"/>
<polygon fill="black" stroke="black" points="105.21,-384.64 97.92,-376.96 98.83,-387.52 105.21,-384.64"/>
</g>
<!-- individual_impl -->
<g id="node19" class="node">
<title>individual_impl</title>
<ellipse fill="lightyellow" stroke="black" cx="196" cy="-619.57" rx="91.85" ry="26.74"/>
<text text-anchor="middle" x="196" y="-623.37" font-family="Times,serif" font-size="14.00">Individual</text>
<text text-anchor="middle" x="196" y="-608.37" font-family="Times,serif" font-size="14.00">Implementation</text>
</g>
<!-- iterative_cycles&#45;&gt;individual_impl -->
<g id="edge37" class="edge">
<title>iterative_cycles&#45;&gt;individual_impl</title>
<path fill="none" stroke="black" d="M306.1,-552.82C289.05,-564.16 267.07,-578.13 247.2,-590.26"/>
<polygon fill="black" stroke="black" points="245.28,-587.34 238.54,-595.52 248.91,-593.32 245.28,-587.34"/>
</g>
<!-- iterative_cycles&#45;&gt;peer_explain -->
<g id="edge47" class="edge">
<title>iterative_cycles&#45;&gt;peer_explain</title>
<path fill="none" stroke="black" d="M322.56,-503.45C318.32,-494.8 313.5,-484.97 308.97,-475.71"/>
<polygon fill="black" stroke="black" points="312.1,-474.15 304.56,-466.72 305.82,-477.24 312.1,-474.15"/>
</g>
<!-- iterative_cycles&#45;&gt;design_choices -->
<g id="edge39" class="edge">
<title>iterative_cycles&#45;&gt;design_choices</title>
<path fill="none" stroke="black" d="M326.72,-556.6C319.14,-580.07 307.53,-615.66 297,-646.44 294.02,-655.14 290.74,-664.5 287.64,-673.24"/>
<polygon fill="black" stroke="black" points="284.3,-672.18 284.24,-682.77 290.89,-674.53 284.3,-672.18"/>
</g>
<!-- fair_distribution -->
<g id="node11" class="node">
<title>fair_distribution</title>
<ellipse fill="orangered" stroke="black" cx="241" cy="-90" rx="59.59" ry="18"/>
<text text-anchor="middle" x="241" y="-86.3" font-family="Times,serif" font-size="14.00" fill="white">Mark&#45;Split</text>
</g>
<!-- Grade -->
<g id="node17" class="node">
<title>Grade</title>
<ellipse fill="black" stroke="black" cx="146" cy="-18" rx="38.99" ry="18"/>
<text text-anchor="middle" x="146" y="-14.3" font-family="Times,serif" font-size="14.00" fill="white">Grade</text>
</g>
<!-- fair_distribution&#45;&gt;Grade -->
<g id="edge31" class="edge">
<title>fair_distribution&#45;&gt;Grade</title>
<path fill="none" stroke="black" d="M219.44,-73.12C205.99,-63.2 188.53,-50.34 174.01,-39.64"/>
<polygon fill="black" stroke="black" points="175.98,-36.74 165.85,-33.63 171.83,-42.38 175.98,-36.74"/>
</g>
<!-- social_accountability&#45;&gt;iterative_cycles -->
<g id="edge19" class="edge">
<title>social_accountability&#45;&gt;iterative_cycles</title>
<path fill="none" stroke="black" d="M239.38,-197.88C217.25,-252.34 166.49,-380.46 220,-466.96 233.23,-488.35 256.34,-502.59 278.44,-511.95"/>
<polygon fill="black" stroke="black" points="277.23,-515.24 287.82,-515.67 279.81,-508.73 277.23,-515.24"/>
</g>
<!-- social_accountability&#45;&gt;fair_distribution -->
<g id="edge22" class="edge">
<title>social_accountability&#45;&gt;fair_distribution</title>
<path fill="none" stroke="black" d="M245.67,-143.61C244.95,-135.51 244.16,-126.57 243.43,-118.39"/>
<polygon fill="black" stroke="black" points="246.9,-117.87 242.53,-108.22 239.93,-118.49 246.9,-117.87"/>
</g>
<!-- social_accountability&#45;&gt;peer_learning -->
<g id="edge20" class="edge">
<title>social_accountability&#45;&gt;peer_learning</title>
<path fill="none" stroke="black" d="M274.16,-195.99C282.62,-205.36 291.84,-216.25 299.9,-226.35"/>
<polygon fill="black" stroke="black" points="297.15,-228.52 306.07,-234.23 302.66,-224.2 297.15,-228.52"/>
</g>
<!-- peer_learning&#45;&gt;knowledge -->
<g id="edge2" class="edge">
<title>peer_learning&#45;&gt;knowledge</title>
<path fill="none" stroke="black" d="M352.89,-238.37C377.24,-223.99 410.81,-205.14 436.96,-191.18"/>
<polygon fill="black" stroke="black" points="438.67,-194.24 445.87,-186.46 435.4,-188.05 438.67,-194.24"/>
</g>
<!-- peer_learning&#45;&gt;social_accountability -->
<g id="edge21" class="edge">
<title>peer_learning&#45;&gt;social_accountability</title>
<path fill="none" stroke="black" d="M295.38,-236.1C286.82,-226.64 277.44,-215.57 269.24,-205.31"/>
<polygon fill="black" stroke="black" points="271.89,-203.01 262.97,-197.3 266.38,-207.33 271.89,-203.01"/>
</g>
<!-- Product&#45;&gt;Grade -->
<g id="edge51" class="edge">
<title>Product&#45;&gt;Grade</title>
<path fill="none" stroke="black" d="M91.25,-323.19C97.59,-273.81 112.69,-163.59 132,-72 133.79,-63.49 136.09,-54.3 138.31,-46"/>
<polygon fill="black" stroke="black" points="141.76,-46.65 141.02,-36.08 135,-44.8 141.76,-46.65"/>
</g>
<!-- slides_notes -->
<g id="node15" class="node">
<title>slides_notes</title>
<ellipse fill="cyan" stroke="black" cx="712" cy="-1080.61" rx="101.28" ry="18"/>
<text text-anchor="middle" x="712" y="-1076.91" font-family="Times,serif" font-size="14.00">Slides, Notes, Code</text>
</g>
<!-- slides_notes&#45;&gt;lectures -->
<g id="edge25" class="edge">
<title>slides_notes&#45;&gt;lectures</title>
<path fill="none" stroke="black" d="M697.68,-1062.5C688.56,-1051.6 676.61,-1037.32 666.49,-1025.23"/>
<polygon fill="black" stroke="black" points="668.94,-1022.71 659.84,-1017.28 663.57,-1027.2 668.94,-1022.71"/>
</g>
<!-- slides_notes&#45;&gt;worked_examples -->
<g id="edge26" class="edge">
<title>slides_notes&#45;&gt;worked_examples</title>
<path fill="none" stroke="black" d="M726.38,-1062.44C734.07,-1052.51 743.12,-1039.47 749,-1026.61 762.22,-997.7 770.57,-962.47 775.41,-936.58"/>
<polygon fill="black" stroke="black" points="778.91,-936.92 777.22,-926.46 772.02,-935.69 778.91,-936.92"/>
</g>
<!-- examinations&#45;&gt;Grade -->
<g id="edge32" class="edge">
<title>examinations&#45;&gt;Grade</title>
<path fill="none" stroke="black" d="M384.33,-76.73C329.24,-63.38 242.09,-42.27 189.84,-29.62"/>
<polygon fill="black" stroke="black" points="190.42,-26.16 179.87,-27.2 188.77,-32.96 190.42,-26.16"/>
</g>
<!-- Doubt&#45;&gt;jit_concept -->
<g id="edge50" class="edge">
<title>Doubt&#45;&gt;jit_concept</title>
<path fill="none" stroke="black" d="M420.76,-366.02C455.53,-393.67 524,-457.23 524,-528.83 524,-710.31 524,-710.31 524,-710.31 524,-758.64 517.39,-813.56 511.77,-851.52"/>
<polygon fill="black" stroke="black" points="508.26,-851.35 510.22,-861.76 515.18,-852.4 508.26,-851.35"/>
</g>
<!-- Doubt&#45;&gt;knowledge -->
<g id="edge13" class="edge">
<title>Doubt&#45;&gt;knowledge</title>
<path fill="none" stroke="black" d="M412.25,-323.07C428.06,-286.16 456.38,-220.01 469.7,-188.91"/>
<polygon fill="black" stroke="black" points="408.87,-322.08 408.15,-332.65 415.3,-324.84 408.87,-322.08"/>
</g>
<!-- Doubt&#45;&gt;iterative_cycles -->
<g id="edge33" class="edge">
<title>Doubt&#45;&gt;iterative_cycles</title>
<path fill="none" stroke="black" d="M408.83,-378.29C414.39,-402.6 418.83,-438.77 406,-466.96 398.28,-483.93 383.36,-498.05 369.18,-508.5"/>
<polygon fill="black" stroke="black" points="412.16,-377.19 406.34,-368.34 405.37,-378.89 412.16,-377.19"/>
</g>
<!-- Doubt&#45;&gt;peer_learning -->
<g id="edge54" class="edge">
<title>Doubt&#45;&gt;peer_learning</title>
<path fill="none" stroke="black" d="M386.33,-333.26C376.15,-322.09 362.25,-306.85 349.88,-293.29"/>
<polygon fill="black" stroke="black" points="352.15,-290.58 342.82,-285.55 346.98,-295.29 352.15,-290.58"/>
</g>
<!-- individual_impl&#45;&gt;iterative_cycles -->
<g id="edge36" class="edge">
<title>individual_impl&#45;&gt;iterative_cycles</title>
<path fill="none" stroke="black" d="M228.24,-594.36C246.58,-582.26 269.74,-567.63 289.84,-555.47"/>
<polygon fill="black" stroke="black" points="291.76,-558.39 298.53,-550.24 288.16,-552.39 291.76,-558.39"/>
</g>
<!-- individual_impl&#45;&gt;Grade -->
<g id="edge53" class="edge">
<title>individual_impl&#45;&gt;Grade</title>
<path fill="none" stroke="black" d="M142.7,-597.53C84.66,-570.7 0,-518.33 0,-441.09 0,-441.09 0,-441.09 0,-169.87 0,-106.54 67.26,-59.68 110.47,-36.1"/>
<polygon fill="black" stroke="black" points="112.36,-39.06 119.56,-31.29 109.08,-32.88 112.36,-39.06"/>
</g>
<!-- individual_impl&#45;&gt;Doubt -->
<g id="edge46" class="edge">
<title>individual_impl&#45;&gt;Doubt</title>
<path fill="none" stroke="black" d="M206.82,-592.47C218.88,-566.38 240.74,-526.8 271,-502.96 308.76,-473.21 340.78,-502.64 373,-466.96 394.8,-442.82 400.37,-404.63 401.44,-378.81"/>
<polygon fill="black" stroke="black" points="404.94,-378.64 401.65,-368.57 397.94,-378.5 404.94,-378.64"/>
</g>
<!-- individual_explain&#45;&gt;individual_impl -->
<g id="edge35" class="edge">
<title>individual_explain&#45;&gt;individual_impl</title>
<path fill="none" stroke="black" d="M180.09,-761.79C183.95,-727.54 189.64,-676.99 193.07,-646.58"/>
<polygon fill="black" stroke="black" points="176.59,-761.53 178.95,-771.86 183.55,-762.32 176.59,-761.53"/>
</g>
<!-- individual_explain&#45;&gt;design_choices -->
<g id="edge38" class="edge">
<title>individual_explain&#45;&gt;design_choices</title>
<path fill="none" stroke="black" d="M203.05,-774.08C215.09,-763.4 229.39,-750.74 242.04,-739.52"/>
<polygon fill="black" stroke="black" points="244.52,-742 249.68,-732.75 239.88,-736.76 244.52,-742"/>
</g>
<!-- peer_explain&#45;&gt;peer_learning -->
<g id="edge49" class="edge">
<title>peer_explain&#45;&gt;peer_learning</title>
<path fill="none" stroke="black" d="M296.28,-412.9C301.26,-382.41 309.52,-331.85 315.11,-297.66"/>
<polygon fill="black" stroke="black" points="318.59,-298.05 316.75,-287.62 311.68,-296.92 318.59,-298.05"/>
</g>
<!-- peer_explain&#45;&gt;Grade -->
<g id="edge52" class="edge">
<title>peer_explain&#45;&gt;Grade</title>
<path fill="none" stroke="black" d="M274.45,-413.72C246.05,-371.23 190.62,-282 165,-197.74 149.21,-145.79 146.1,-81.89 145.74,-46.28"/>
<polygon fill="black" stroke="black" points="149.24,-46.17 145.7,-36.18 142.24,-46.19 149.24,-46.17"/>
</g>
<!-- peer_explain&#45;&gt;Doubt -->
<g id="edge48" class="edge">
<title>peer_explain&#45;&gt;Doubt</title>
<path fill="none" stroke="black" d="M321.5,-415.35C338.03,-402.04 358.49,-385.57 374.51,-372.67"/>
<polygon fill="black" stroke="black" points="376.85,-375.29 382.44,-366.29 372.46,-369.83 376.85,-375.29"/>
</g>
<!-- design_choices&#45;&gt;individual_impl -->
<g id="edge41" class="edge">
<title>design_choices&#45;&gt;individual_impl</title>
<path fill="none" stroke="black" d="M253.83,-684.8C245.08,-675.08 234.78,-663.64 225.32,-653.13"/>
<polygon fill="black" stroke="black" points="227.91,-650.78 218.61,-645.69 222.7,-655.46 227.91,-650.78"/>
</g>
</g>
</svg>
