<?xml version="1.0" standalone="no"?>
<svg xmlns="http://www.w3.org/2000/svg" xmlns:xlink="http://www.w3.org/1999/xlink" width="623pt" height="781pt" viewBox="0.00 0.00 623.46 780.75">
<g id="graph0" class="graph" transform="translate(177.08456912207146,637.8244141531725) scale(0.6765987579774345)" data-name="CourseDesign">

<polygon fill="white" stroke="none" points="-4,4 -4,-776.75 619.46,-776.75 619.46,4 -4,4"/>
<!-- lab_monitoring -->
<g id="node1" class="node" pointer-events="visible" data-name="lab_monitoring">

<ellipse fill="lightblue" stroke="black" cx="442.21" cy="-743.33" rx="56.33" ry="29.33"/>
<text text-anchor="middle" x="442.21" y="-747.53" font-family="Times,serif" font-size="14.00">In-lab</text>
<text text-anchor="middle" x="442.21" y="-730.73" font-family="Times,serif" font-size="14.00">Monitoring</text>
</g>
<!-- lab_feedback -->
<g id="node2" class="node" pointer-events="visible" data-name="lab_feedback">

<ellipse fill="lightblue" stroke="black" cx="566.21" cy="-743.33" rx="49.49" ry="29.33"/>
<text text-anchor="middle" x="566.21" y="-747.53" font-family="Times,serif" font-size="14.00">In-lab</text>
<text text-anchor="middle" x="566.21" y="-730.73" font-family="Times,serif" font-size="14.00">Feedback</text>
</g>
<!-- lab_monitoring&#45;&gt;lab_feedback -->
<g id="edge6" class="edge" data-name="lab_monitoring-&gt;lab_feedback">

<path fill="none" stroke="black" d="M498.89,-743.33C500.87,-743.33 502.86,-743.33 504.85,-743.33"/>
<polygon fill="black" stroke="black" points="504.73,-746.83 514.73,-743.33 504.73,-739.83 504.73,-746.83"/>
</g>
<!-- jit_concept -->
<g id="node5" class="node" pointer-events="visible" data-name="jit_concept">

<ellipse fill="lightgreen" stroke="black" cx="313.21" cy="-564.62" rx="61.81" ry="41.09"/>
<text text-anchor="middle" x="313.21" y="-577.22" font-family="Times,serif" font-size="14.00">Just-in-Time</text>
<text text-anchor="middle" x="313.21" y="-560.42" font-family="Times,serif" font-size="14.00">Concept</text>
<text text-anchor="middle" x="313.21" y="-543.62" font-family="Times,serif" font-size="14.00">Introduction</text>
</g>
<!-- lab_monitoring&#45;&gt;jit_concept -->
<g id="edge3" class="edge" data-name="lab_monitoring-&gt;jit_concept">

<path fill="none" stroke="black" d="M422.62,-715.49C402.39,-687.78 370.46,-644.04 346.31,-610.95"/>
<polygon fill="black" stroke="black" points="349.33,-609.16 340.61,-603.15 343.68,-613.29 349.33,-609.16"/>
</g>
<!-- iterative_cycles -->
<g id="node11" class="node" pointer-events="visible" data-name="iterative_cycles">

<ellipse fill="lightyellow" stroke="black" cx="407.21" cy="-363.08" rx="44.08" ry="29.33"/>
<text text-anchor="middle" x="407.21" y="-367.28" font-family="Times,serif" font-size="14.00">Iterative</text>
<text text-anchor="middle" x="407.21" y="-350.48" font-family="Times,serif" font-size="14.00">Cycles</text>
</g>
<!-- lab_feedback&#45;&gt;iterative_cycles -->
<g id="edge33" class="edge" data-name="lab_feedback-&gt;iterative_cycles">

<path fill="none" stroke="black" d="M569.87,-713.7C575.86,-654.56 581.51,-517.03 519.21,-428.49 504.11,-407.03 479.43,-391.74 457.07,-381.45"/>
<polygon fill="black" stroke="black" points="458.63,-378.31 448.06,-377.54 455.84,-384.73 458.63,-378.31"/>
</g>
<!-- doubt_resolution -->
<g id="node3" class="node" pointer-events="visible" data-name="doubt_resolution">

<ellipse fill="lightgreen" stroke="black" cx="54.21" cy="-363.08" rx="54.43" ry="29.33"/>
<text text-anchor="middle" x="54.21" y="-367.28" font-family="Times,serif" font-size="14.00">Doubt</text>
<text text-anchor="middle" x="54.21" y="-350.48" font-family="Times,serif" font-size="14.00">Resolution</text>
</g>
<!-- knowledge -->
<g id="node10" class="node" pointer-events="visible" data-name="knowledge">

<ellipse fill="lightpink" stroke="black" cx="276.21" cy="-279.66" rx="55.61" ry="18"/>
<text text-anchor="middle" x="276.21" y="-275.46" font-family="Times,serif" font-size="14.00">Knowledge</text>
</g>
<!-- doubt_resolution&#45;&gt;knowledge -->
<g id="edge12" class="edge" data-name="doubt_resolution-&gt;knowledge">

<path fill="none" stroke="black" d="M94.62,-343.12C102.08,-339.83 109.84,-336.55 117.21,-333.66 153.09,-319.63 194.38,-305.94 225.9,-295.99"/>
<polygon fill="black" stroke="black" points="226.67,-299.41 235.16,-293.08 224.58,-292.73 226.67,-299.41"/>
</g>
<!-- Doubt -->
<g id="node19" class="node" pointer-events="visible" data-name="Doubt">

<ellipse fill="lightpink" stroke="black" cx="201.21" cy="-196.25" rx="35.36" ry="18"/>
<text text-anchor="middle" x="201.21" y="-192.05" font-family="Times,serif" font-size="14.00">Doubt</text>
</g>
<!-- doubt_resolution&#45;&gt;Doubt -->
<g id="edge43" class="edge" data-name="doubt_resolution-&gt;Doubt">

<path fill="none" stroke="black" d="M84.81,-327.77C116.27,-292.49 163.87,-239.12 187.25,-212.9"/>
<polygon fill="black" stroke="black" points="82.23,-325.4 78.19,-335.19 87.46,-330.06 82.23,-325.4"/>
</g>
<!-- lectures -->
<g id="node4" class="node" pointer-events="visible" data-name="lectures">

<ellipse fill="lightgreen" stroke="black" cx="99.21" cy="-659.92" rx="44.06" ry="18"/>
<text text-anchor="middle" x="99.21" y="-655.72" font-family="Times,serif" font-size="14.00">Lectures</text>
</g>
<!-- lectures&#45;&gt;doubt_resolution -->
<g id="edge4" class="edge" data-name="lectures-&gt;doubt_resolution">

<path fill="none" stroke="black" d="M79.1,-643.62C68.31,-634.1 56.06,-620.85 50.21,-605.92 23.93,-538.76 34.71,-452.88 44.65,-403.61"/>
<polygon fill="black" stroke="black" points="48.05,-404.49 46.7,-393.98 41.2,-403.03 48.05,-404.49"/>
</g>
<!-- lectures&#45;&gt;jit_concept -->
<g id="edge7" class="edge" data-name="lectures-&gt;jit_concept">

<path fill="none" stroke="black" d="M133.06,-648.09C162.44,-638.29 205.85,-622.84 242.21,-605.92 247.38,-603.51 252.68,-600.87 257.93,-598.12"/>
<polygon fill="black" stroke="black" points="259.46,-601.27 266.62,-593.46 256.15,-595.1 259.46,-601.27"/>
</g>
<!-- worked_examples -->
<g id="node6" class="node" pointer-events="visible" data-name="worked_examples">

<ellipse fill="lightgreen" stroke="black" cx="146.21" cy="-564.62" rx="86.84" ry="29.33"/>
<text text-anchor="middle" x="146.21" y="-568.82" font-family="Times,serif" font-size="14.00">Worked Examples</text>
<text text-anchor="middle" x="146.21" y="-552.02" font-family="Times,serif" font-size="14.00">and Demonstration</text>
</g>
<!-- lectures&#45;&gt;worked_examples -->
<g id="edge8" class="edge" data-name="lectures-&gt;worked_examples">

<path fill="none" stroke="black" d="M107.83,-641.8C113.15,-631.26 120.18,-617.3 126.77,-604.21"/>
<polygon fill="black" stroke="black" points="129.87,-605.84 131.25,-595.33 123.62,-602.69 129.87,-605.84"/>
</g>
<!-- sequential_pipeline -->
<g id="node9" class="node" pointer-events="visible" data-name="sequential_pipeline">

<ellipse fill="lightyellow" stroke="black" cx="402.21" cy="-457.91" rx="50.19" ry="29.33"/>
<text text-anchor="middle" x="402.21" y="-462.11" font-family="Times,serif" font-size="14.00">Project</text>
<text text-anchor="middle" x="402.21" y="-445.31" font-family="Times,serif" font-size="14.00">Time-line</text>
</g>
<!-- jit_concept&#45;&gt;sequential_pipeline -->
<g id="edge10" class="edge" data-name="jit_concept-&gt;sequential_pipeline">

<path fill="none" stroke="black" d="M343.1,-528.46C352.74,-517.12 363.41,-504.56 373.01,-493.27"/>
<polygon fill="black" stroke="black" points="375.64,-495.58 379.45,-485.69 370.3,-491.05 375.64,-495.58"/>
</g>
<!-- jit_concept&#45;&gt;knowledge -->
<g id="edge11" class="edge" data-name="jit_concept-&gt;knowledge">

<path fill="none" stroke="black" d="M315.37,-523.08C316.82,-476.61 316.14,-398.51 300.21,-333.66 298.09,-325.03 294.59,-316.07 290.92,-308.03"/>
<polygon fill="black" stroke="black" points="294.09,-306.56 286.56,-299.11 287.8,-309.63 294.09,-306.56"/>
</g>
<!-- worked_examples&#45;&gt;doubt_resolution -->
<g id="edge9" class="edge" data-name="worked_examples-&gt;doubt_resolution">

<path fill="none" stroke="black" d="M133.23,-535.45C117.15,-500.59 89.72,-441.08 71.78,-402.17"/>
<polygon fill="black" stroke="black" points="74.98,-400.77 67.62,-393.15 68.63,-403.7 74.98,-400.77"/>
</g>
<!-- worked_examples&#45;&gt;knowledge -->
<g id="edge14" class="edge" data-name="worked_examples-&gt;knowledge">

<path fill="none" stroke="black" d="M172.67,-536.38C201.59,-504.7 246.56,-449.45 267.21,-392.49 277.01,-365.49 278.5,-332.48 278.01,-309.35"/>
<polygon fill="black" stroke="black" points="281.51,-309.3 277.65,-299.44 274.52,-309.56 281.51,-309.3"/>
</g>
<!-- community_exemplars -->
<g id="node7" class="node" pointer-events="visible" data-name="community_exemplars">

<ellipse fill="cyan" stroke="black" cx="310.21" cy="-743.33" rx="44.65" ry="18"/>
<text text-anchor="middle" x="310.21" y="-739.13" font-family="Times,serif" font-size="14.00">Past PLs</text>
</g>
<!-- community_exemplars&#45;&gt;worked_examples -->
<g id="edge28" class="edge" data-name="community_exemplars-&gt;worked_examples">

<path fill="none" stroke="black" d="M295.08,-726.02C268.91,-697.82 214.62,-639.33 179.34,-601.31"/>
<polygon fill="black" stroke="black" points="182.08,-599.12 172.71,-594.17 176.95,-603.88 182.08,-599.12"/>
</g>
<!-- community_exemplars&#45;&gt;sequential_pipeline -->
<g id="edge27" class="edge" data-name="community_exemplars-&gt;sequential_pipeline">

<path fill="none" stroke="black" d="M322,-725.61C338.86,-700.79 369.44,-652.11 384.21,-605.92 395.45,-570.78 399.74,-528.86 401.35,-498.79"/>
<polygon fill="black" stroke="black" points="404.84,-499.15 401.79,-489 397.84,-498.83 404.84,-499.15"/>
</g>
<!-- prog_assignments -->
<g id="node8" class="node" pointer-events="visible" data-name="prog_assignments">

<ellipse fill="purple" stroke="black" cx="192.21" cy="-363.08" rx="65.51" ry="29.33"/>
<text text-anchor="middle" x="192.21" y="-367.28" font-family="Times,serif" font-size="14.00" fill="white">Programming</text>
<text text-anchor="middle" x="192.21" y="-350.48" font-family="Times,serif" font-size="14.00" fill="white">Assignments</text>
</g>
<!-- prog_assignments&#45;&gt;lab_monitoring -->
<g id="edge40" class="edge" data-name="prog_assignments-&gt;lab_monitoring">

<path fill="none" stroke="black" d="M253.02,-374.56C328.31,-388.16 448.26,-412.07 461.21,-428.49 524.49,-508.71 485.08,-639.39 459.32,-703.87"/>
<polygon fill="black" stroke="black" points="456.14,-702.39 455.58,-712.97 462.62,-705.05 456.14,-702.39"/>
</g>
<!-- prog_assignments&#45;&gt;knowledge -->
<g id="edge17" class="edge" data-name="prog_assignments-&gt;knowledge">

<path fill="none" stroke="black" d="M213.78,-334.97C223.64,-324.89 235.41,-313.56 246.11,-303.87"/>
<polygon fill="black" stroke="black" points="248.12,-306.77 253.26,-297.51 243.47,-301.54 248.12,-306.77"/>
</g>
<!-- Grade -->
<g id="node18" class="node" pointer-events="visible" data-name="Grade">

<ellipse fill="black" stroke="black" cx="336.21" cy="-18" rx="34.75" ry="18"/>
<text text-anchor="middle" x="336.21" y="-13.8" font-family="Times,serif" font-size="14.00" fill="white">Grade</text>
</g>
<!-- prog_assignments&#45;&gt;Grade -->
<g id="edge39" class="edge" data-name="prog_assignments-&gt;Grade">

<path fill="none" stroke="black" d="M181.32,-334.01C160.75,-275.77 124.3,-141.4 195.21,-72 221.32,-46.45 260.9,-33.01 291.49,-26.06"/>
<polygon fill="black" stroke="black" points="292.18,-29.49 301.25,-24.02 290.74,-22.64 292.18,-29.49"/>
</g>
<!-- prog_assignments&#45;&gt;Doubt -->

<!-- sequential_pipeline&#45;&gt;lab_monitoring -->
<g id="edge32" class="edge" data-name="sequential_pipeline-&gt;lab_monitoring">

<path fill="none" stroke="black" d="M409.57,-487.3C412.27,-498.47 415.16,-511.44 417.21,-523.33 427.96,-585.5 435.24,-658.44 439.05,-702.48"/>
<polygon fill="black" stroke="black" points="435.55,-702.66 439.89,-712.32 442.53,-702.06 435.55,-702.66"/>
</g>
<!-- sequential_pipeline&#45;&gt;prog_assignments -->
<g id="edge15" class="edge" data-name="sequential_pipeline-&gt;prog_assignments">

<path fill="none" stroke="black" d="M362.71,-439.45C330.49,-425.2 284.56,-404.9 248.49,-388.95"/>
<polygon fill="black" stroke="black" points="250.06,-385.82 239.5,-384.98 247.23,-392.23 250.06,-385.82"/>
</g>
<!-- sequential_pipeline&#45;&gt;iterative_cycles -->
<g id="edge16" class="edge" data-name="sequential_pipeline-&gt;iterative_cycles">

<path fill="none" stroke="black" d="M403.75,-428.3C404.17,-420.62 404.62,-412.18 405.06,-404.01"/>
<polygon fill="black" stroke="black" points="408.54,-404.44 405.59,-394.26 401.55,-404.06 408.54,-404.44"/>
</g>
<!-- knowledge&#45;&gt;prog_assignments -->
<g id="edge34" class="edge" data-name="knowledge-&gt;prog_assignments">

<path fill="none" stroke="black" d="M264.52,-297.4C256.02,-306.64 244.21,-318.43 232.55,-329.41"/>
<polygon fill="black" stroke="black" points="230.2,-326.81 225.26,-336.18 234.97,-331.94 230.2,-326.81"/>
</g>
<!-- knowledge&#45;&gt;iterative_cycles -->
<g id="edge18" class="edge" data-name="knowledge-&gt;iterative_cycles">

<path fill="none" stroke="black" d="M305.29,-295.41C324.07,-306.23 348.57,-321.23 368.89,-334.26"/>
<polygon fill="black" stroke="black" points="366.92,-337.16 377.22,-339.65 370.73,-331.28 366.92,-337.16"/>
</g>
<!-- peer_learning -->
<g id="node14" class="node" pointer-events="visible" data-name="peer_learning">

<ellipse fill="lightyellow" stroke="black" cx="339.21" cy="-196.25" rx="47.09" ry="29.33"/>
<text text-anchor="middle" x="339.21" y="-200.45" font-family="Times,serif" font-size="14.00">Group</text>
<text text-anchor="middle" x="339.21" y="-183.65" font-family="Times,serif" font-size="14.00">Learning</text>
</g>
<!-- knowledge&#45;&gt;peer_learning -->
<g id="edge1" class="edge" data-name="knowledge-&gt;peer_learning">

<path fill="none" stroke="black" d="M283.94,-261.4C289.96,-252.35 298.44,-240.97 306.99,-230.31"/>
<polygon fill="black" stroke="black" points="309.54,-232.71 313.18,-222.76 304.13,-228.28 309.54,-232.71"/>
</g>
<!-- examinations -->
<g id="node17" class="node" pointer-events="visible" data-name="examinations">

<ellipse fill="brown" stroke="black" cx="268.21" cy="-101.42" rx="64.28" ry="18"/>
<text text-anchor="middle" x="268.21" y="-97.22" font-family="Times,serif" font-size="14.00" fill="white">Examinations</text>
</g>
<!-- knowledge&#45;&gt;examinations -->
<g id="edge31" class="edge" data-name="knowledge-&gt;examinations">

<path fill="none" stroke="black" d="M275.43,-261.44C274.06,-231.17 271.2,-168.13 269.52,-131.16"/>
<polygon fill="black" stroke="black" points="273.02,-131.05 269.07,-121.22 266.02,-131.37 273.02,-131.05"/>
</g>
<!-- knowledge&#45;&gt;Doubt -->
<g id="edge13" class="edge" data-name="knowledge-&gt;Doubt">

<path fill="none" stroke="black" d="M261.04,-262.19C250.15,-250.37 235.32,-234.27 223.15,-221.06"/>
<polygon fill="black" stroke="black" points="225.98,-218.97 216.63,-213.98 220.83,-223.71 225.98,-218.97"/>
</g>
<!-- iterative_cycles&#45;&gt;lab_monitoring -->
<g id="edge5" class="edge" data-name="iterative_cycles-&gt;lab_monitoring">

<path fill="none" stroke="black" d="M443.04,-380.43C461.98,-391.16 483.47,-407.18 494.21,-428.49 544.09,-527.49 531.14,-573.39 494.21,-677.92 490.34,-688.89 483.71,-699.37 476.45,-708.57"/>
<polygon fill="black" stroke="black" points="473.83,-706.26 470.05,-716.15 479.18,-710.77 473.83,-706.26"/>
</g>
<!-- iterative_cycles&#45;&gt;knowledge -->
<g id="edge19" class="edge" data-name="iterative_cycles-&gt;knowledge">

<path fill="none" stroke="black" d="M372.77,-344.21C352.06,-332.12 326.07,-316.05 306.2,-303.1"/>
<polygon fill="black" stroke="black" points="308.25,-300.25 297.98,-297.66 304.39,-306.1 308.25,-300.25"/>
</g>
<!-- social_accountability -->
<g id="node13" class="node" pointer-events="visible" data-name="social_accountability">

<ellipse fill="lightyellow" stroke="black" cx="463.21" cy="-196.25" rx="59.34" ry="29.33"/>
<text text-anchor="middle" x="463.21" y="-200.45" font-family="Times,serif" font-size="14.00">Respect and</text>
<text text-anchor="middle" x="463.21" y="-183.65" font-family="Times,serif" font-size="14.00">Belonging</text>
</g>
<!-- iterative_cycles&#45;&gt;social_accountability -->
<g id="edge21" class="edge" data-name="iterative_cycles-&gt;social_accountability">

<path fill="none" stroke="black" d="M409.18,-333.59C412.57,-322.41 417.17,-309.46 421.21,-297.66 428.28,-277.06 435.88,-253.97 442.91,-235.13"/>
<polygon fill="black" stroke="black" points="446.1,-236.59 446.43,-226 439.57,-234.07 446.1,-236.59"/>
</g>
<!-- iterative_cycles&#45;&gt;peer_learning -->
<g id="edge23" class="edge" data-name="iterative_cycles-&gt;peer_learning">

<path fill="none" stroke="black" d="M392.41,-335.17C384.82,-314.66 375.69,-285.92 365.21,-261.66 361.52,-253.12 357.09,-244.2 352.84,-235.82"/>
<polygon fill="black" stroke="black" points="355.96,-234.24 348.32,-226.9 349.72,-237.41 355.96,-234.24"/>
</g>
<!-- Product -->
<g id="node15" class="node" pointer-events="visible" data-name="Product">

<ellipse fill="orange" stroke="black" cx="546.21" cy="-101.42" rx="48.92" ry="29.33"/>
<text text-anchor="middle" x="546.21" y="-105.62" font-family="Times,serif" font-size="14.00">Final</text>
<text text-anchor="middle" x="546.21" y="-88.82" font-family="Times,serif" font-size="14.00">Compiler</text>
</g>
<!-- iterative_cycles&#45;&gt;Product -->
<g id="edge35" class="edge" data-name="iterative_cycles-&gt;Product">

<path fill="none" stroke="black" d="M435.55,-340.15C464.89,-315.69 509.43,-273.24 531.21,-225.66 543.14,-199.61 546.73,-167.38 547.42,-142.41"/>
<polygon fill="black" stroke="black" points="550.91,-142.7 547.53,-132.66 543.92,-142.62 550.91,-142.7"/>
</g>
<!-- iterative_cycles&#45;&gt;Doubt -->
<g id="edge41" class="edge" data-name="iterative_cycles-&gt;Doubt">

<path fill="none" stroke="black" d="M394.61,-334.74C383.27,-312.62 364.78,-281.93 341.21,-261.66 312.43,-236.91 272.55,-219.81 242.72,-209.48"/>
<polygon fill="black" stroke="black" points="243.85,-206.17 233.25,-206.33 241.64,-212.81 243.85,-206.17"/>
</g>
<!-- fair_distribution -->
<g id="node12" class="node" pointer-events="visible" data-name="fair_distribution">

<ellipse fill="orangered" stroke="black" cx="419.21" cy="-101.42" rx="53.34" ry="18"/>
<text text-anchor="middle" x="419.21" y="-97.22" font-family="Times,serif" font-size="14.00" fill="white">Mark-Split</text>
</g>
<!-- fair_distribution&#45;&gt;Grade -->
<g id="edge37" class="edge" data-name="fair_distribution-&gt;Grade">

<path fill="none" stroke="black" d="M402.42,-83.94C390.18,-71.93 373.43,-55.51 359.84,-42.18"/>
<polygon fill="black" stroke="black" points="362.53,-39.91 352.94,-35.41 357.63,-44.91 362.53,-39.91"/>
</g>
<!-- social_accountability&#45;&gt;iterative_cycles -->
<g id="edge22" class="edge" data-name="social_accountability-&gt;iterative_cycles">

<path fill="none" stroke="black" d="M461.58,-225.88C456.5,-246 447.48,-273.53 439.21,-297.66 436.15,-306.61 432.76,-316.22 429.29,-325.22"/>
<polygon fill="black" stroke="black" points="426.08,-323.82 425.58,-334.4 432.57,-326.44 426.08,-323.82"/>
</g>
<!-- social_accountability&#45;&gt;fair_distribution -->
<g id="edge26" class="edge" data-name="social_accountability-&gt;fair_distribution">

<path fill="none" stroke="black" d="M450.01,-167.39C444.35,-155.45 437.76,-141.55 432.14,-129.68"/>
<polygon fill="black" stroke="black" points="435.39,-128.36 427.94,-120.83 429.06,-131.36 435.39,-128.36"/>
</g>
<!-- social_accountability&#45;&gt;peer_learning -->
<g id="edge24" class="edge" data-name="social_accountability-&gt;peer_learning">

<path fill="none" stroke="black" d="M419.28,-176.06C408.58,-173.84 397.88,-173.59 387.18,-175.32"/>
<polygon fill="black" stroke="black" points="386.49,-171.88 377.5,-177.49 388.03,-178.71 386.49,-171.88"/>
</g>
<!-- peer_learning&#45;&gt;knowledge -->
<g id="edge2" class="edge" data-name="peer_learning-&gt;knowledge">

<path fill="none" stroke="black" d="M324.46,-224.6C317.71,-233.95 309.62,-244.35 301.96,-253.52"/>
<polygon fill="black" stroke="black" points="299.36,-251.17 295.5,-261.04 304.67,-255.74 299.36,-251.17"/>
</g>
<!-- peer_learning&#45;&gt;iterative_cycles -->
<g id="edge20" class="edge" data-name="peer_learning-&gt;iterative_cycles">

<path fill="none" stroke="black" d="M362.27,-222.12C369.76,-233.86 377.41,-248.23 383.21,-261.66 391.65,-281.19 399.21,-303.63 404.13,-322.33"/>
<polygon fill="black" stroke="black" points="400.7,-323.08 406.47,-331.97 407.51,-321.42 400.7,-323.08"/>
</g>
<!-- peer_learning&#45;&gt;social_accountability -->
<g id="edge25" class="edge" data-name="peer_learning-&gt;social_accountability">

<path fill="none" stroke="black" d="M376.03,-214.67C386.73,-217.76 397.43,-218.88 408.13,-218.03"/>
<polygon fill="black" stroke="black" points="408.38,-221.53 417.78,-216.65 407.39,-214.61 408.38,-221.53"/>
</g>
<!-- Product&#45;&gt;Grade -->
<g id="edge36" class="edge" data-name="Product-&gt;Grade">

<path fill="none" stroke="black" d="M507.54,-83.04C498.92,-79.3 489.79,-75.44 481.21,-72 445.7,-57.76 404.7,-42.92 375.38,-32.58"/>
<polygon fill="black" stroke="black" points="376.77,-29.36 366.18,-29.35 374.45,-35.96 376.77,-29.36"/>
</g>
<!-- slides_notes -->
<g id="node16" class="node" pointer-events="visible" data-name="slides_notes">

<ellipse fill="cyan" stroke="black" cx="135.21" cy="-743.33" rx="87.43" ry="18"/>
<text text-anchor="middle" x="135.21" y="-739.13" font-family="Times,serif" font-size="14.00">Slides, Notes, Code</text>
</g>
<!-- slides_notes&#45;&gt;lectures -->
<g id="edge29" class="edge" data-name="slides_notes-&gt;lectures">

<path fill="none" stroke="black" d="M127.58,-725.06C122.87,-714.41 116.72,-700.52 111.36,-688.38"/>
<polygon fill="black" stroke="black" points="114.57,-686.99 107.33,-679.26 108.17,-689.82 114.57,-686.99"/>
</g>
<!-- slides_notes&#45;&gt;worked_examples -->
<g id="edge30" class="edge" data-name="slides_notes-&gt;worked_examples">

<path fill="none" stroke="black" d="M141.07,-725.08C145.1,-712.24 150.1,-694.2 152.21,-677.92 155.31,-654.06 154.03,-627.17 151.88,-605.67"/>
<polygon fill="black" stroke="black" points="155.37,-605.4 150.78,-595.85 148.42,-606.18 155.37,-605.4"/>
</g>
<g id="edge38" class="edge" data-name="examinations-&gt;Grade" data-comment="slides_notes-&gt;worked_examples">

<path fill="none" stroke="black" d="M282.3,-83.55C291.88,-72.08 304.72,-56.71 315.46,-43.85"/>
<polygon fill="black" stroke="black" points="318.14,-46.1 321.87,-36.18 312.77,-41.61 318.14,-46.1"/>
</g><!-- Doubt&#45;&gt;prog_assignments -->
<g id="edge42" class="edge" data-name="Doubt-&gt;prog_assignments">

<path fill="none" stroke="black" d="M199.65,-225.92C198,-256.06 195.43,-303.21 193.78,-333.37"/>
<polygon fill="black" stroke="black" points="203.14,-226.2 200.19,-216.03 196.15,-225.82 203.14,-226.2"/>
</g>
</g>
</svg>